<?xml version="1.0" standalone="no"?>
<!DOCTYPE svg PUBLIC "-//W3C//DTD SVG 20010904//EN"
 "http://www.w3.org/TR/2001/REC-SVG-20010904/DTD/svg10.dtd">
<svg version="1.0" xmlns="http://www.w3.org/2000/svg"
 width="92.000000pt" height="92.000000pt" viewBox="0 0 92.000000 92.000000"
 preserveAspectRatio="xMidYMid meet">
<metadata>
Created by potrace 1.14, written by Peter Selinger 2001-2017
</metadata>
<g transform="translate(0.000000,92.000000) scale(0.100000,-0.100000)"
fill="#000000" stroke="none">
<path d="M0 460 l0 -462 57 7 c99 11 221 73 289 147 41 45 87 131 105 196 10
37 19 57 20 45 2 -32 2 -32 23 -89 57 -156 210 -278 374 -299 l52 -6 0 460 0
461 -22 0 c-38 0 -127 -27 -185 -56 -112 -54 -219 -196 -238 -314 l-8 -45 -14
55 c-49 196 -204 332 -405 356 l-48 6 0 -462z"/>
</g>
</svg>
