<svg width="102" height="29" viewBox="0 0 102 29" fill="none" xmlns="http://www.w3.org/2000/svg">
<path d="M41.517 23V5.54545H48.4034C49.7273 5.54545 50.8551 5.7983 51.7869 6.30398C52.7188 6.80398 53.429 7.5 53.9176 8.39204C54.4119 9.27841 54.6591 10.3011 54.6591 11.4602C54.6591 12.6193 54.4091 13.642 53.9091 14.5284C53.4091 15.4148 52.6847 16.1051 51.7358 16.5994C50.7926 17.0937 49.6506 17.3409 48.3097 17.3409H43.9205V14.3835H47.7131C48.4233 14.3835 49.0085 14.2614 49.4688 14.017C49.9347 13.767 50.2813 13.4233 50.5085 12.9858C50.7415 12.5426 50.858 12.0341 50.858 11.4602C50.858 10.8807 50.7415 10.375 50.5085 9.94318C50.2813 9.50568 49.9347 9.16761 49.4688 8.92898C49.0028 8.68466 48.4119 8.5625 47.696 8.5625H45.2074V23H41.517ZM60.4567 18.2102L65.1697 9.90909H68.7493V23H65.2891V14.6733L60.593 23H56.9879V9.90909H60.4567V18.2102ZM70.3452 12.7642V9.90909H82.2088V12.7642H77.9901V23H74.5298V12.7642H70.3452ZM92.1484 18.9858L95.6939 9.90909H98.4553L93.3501 23H90.9382L85.9524 9.90909H88.7053L92.1484 18.9858ZM87.8786 9.90909V23H84.4098V9.90909H87.8786ZM96.5973 23V9.90909H100.023V23H96.5973Z" fill="#121212"/>
<path fill-rule="evenodd" clip-rule="evenodd" d="M14.1497 15.7262C13.7657 23.0669 7.59189 28.9146 0 29V1C7.59189 1.08547 13.7657 6.9331 14.1497 14.2738C14.5287 7.02987 20.5459 1.2399 28 1.0064V28.9937C20.5459 28.7602 14.5287 22.9702 14.1497 15.7262Z" fill="#FF6428"/>
</svg>
